<svg fill="none" height="100%" version="1.1" width="100%" xmlns="http://www.w3.org/2000/svg" viewBox="0 0 352 351"><path d="M93.612 269.616c74.311 57.342 248.29 16.11 224.531-106.842-16.75-147.887-176.66-117.81-178.229-59.556-1.079 39.927 17.506-21.407-58.963 9.368-81.495 32.787-31.362 132.216 12.661 157.03Z" fill="#F9FAFA"></path><path clip-rule="evenodd" d="M207.478 107.527c.522-2.362.841-5.979-.85-8.588-.578-.89-4.721-3.41-5.078 1.654.243.347.462.872.684 1.499-1.36-1.06-3.171-1.992-5.575-2.48-5.759-1.17-13.225.982-16.823 5.75-3.102 4.104-3.869 7.369-4.499 11.682-.265 1.82-.714 3.318-1.095 4.589-.522 1.741-.917 3.057-.538 4.193-.738.606-.574 1.008-.207 1.262l-.009.035-.006.023-.041.166a2.317 2.317 0 0 1-.227.253l.175-.021c-.47 2.256-.022 4.66 1.716 5.625.795.441 1.397.542 1.826.513.106.688.234 1.364.383 2.029.517 2.306 1.653 5.77 3.729 8.625-.113 4.995-.508 11.517-1.886 14.995-.733.73-6.003 3.384-7.658 4.21-1.177.965-3.156 1.799-5.543 2.804-5.31 2.235-12.638 5.32-17.649 12.598-5.799 8.417-6.398 29.556-6.398 29.556l1.189.242c-.564 4.786 1.27 9.781 3.274 13.616.394 6.139 1.573 12.606 4.66 14.593 4.024 2.59 12.126 2.074 20.935.728 2.329.947 9.021 3.457 18.115 5.06 11.39 2.008 30.488 1.255 34.684-.586 4.196-1.84 5.481-5.104 6.851-13.303 1.371-8.2 1.199-18.323 1.199-18.323s-.257-.012-.85.041c2.972-1.174 3.33-2.068 3.33-2.068s.929-15.819-2.835-24.863c-3.764-9.045-5.826-13.269-11.667-15.531l-.471-.182c-5.806-2.246-13.704-5.302-16.232-8.236-.048-.057-.237-.238-.456-.449-.346-.332-.768-.738-.83-.836-.07.16-.143.319-.217.478-1.093-1.668-2.396-4.219-3.306-7.673-.383-1.452-.408-3.833-.326-5.958 1.908-1.937 3.165-4.077 3.822-5.224.339-.593.828-1.71 1.377-3.07.371.016.803-.002 1.305-.071 2.743-.377 4.439-2.936 4.776-5.591.112-.886-.069-1.608-.457-2.162.127-1.188.203-2.547.205-4.008.325-.609.581-1.169.71-1.614.506-1.75.839-5.339.226-8.456l.162-.006c1.857-.073 3.945-.154 3.592-2.318-1.793-3.209-4.798-4.578-7.196-5.202Z" fill="#F0F1F2" fill-rule="evenodd"></path><path clip-rule="evenodd" d="M282.98 115.601c.433-2.072.698-5.245-.705-7.533-.479-.781-3.915-2.992-4.21 1.451.2.303.382.764.566 1.313-1.127-.929-2.629-1.746-4.621-2.174-4.776-1.026-10.968.862-13.951 5.044-2.572 3.599-3.209 6.463-3.731 10.246-.226 1.638-1.655 6.372-3.159 11.355-1.971 6.53-4.071 13.487-3.763 14.465-.826.717 6.422.501 11.591.263-.153 3.964-.537 8.432-1.5 11.004-.597.636-4.978 2.97-6.353 3.696-.976.846-2.617 1.577-4.597 2.459-4.403 1.96-10.48 4.666-14.636 11.049-4.809 7.383-5.305 25.924-5.305 25.924l.987.212c-.467 4.196 1.053 8.576 2.714 11.939.327 5.385 1.304 11.059 3.864 12.802 3.338 2.273 10.056 1.82 17.361.639 1.932.831 7.481 3.032 15.022 4.438 9.446 1.761 25.283 1.101 28.763-.514 3.48-1.614 4.545-4.476 5.681-11.668 1.136-7.192.994-16.071.994-16.071s-.212-.011-.703.036c2.463-1.029 2.759-1.813 2.759-1.813s.771-13.874-2.351-21.807c-3.121-7.933-4.831-11.639-9.674-13.622l-.391-.16c-4.815-1.97-11.364-4.65-13.46-7.224-.04-.049-.197-.209-.379-.393-.287-.292-.637-.647-.688-.734a24.9 24.9 0 0 1-.179.417c-.893-1.441-1.954-3.634-2.707-6.594 4.293.84 12.98 2.354 13.369.934 5.472-3.784-1.278-25.874-3.61-32.784 1.538-.063 3.262-.138 2.969-2.032-1.486-2.815-3.978-4.016-5.967-4.563ZM125.229 114.461c-1.116-3.102-3.925-6.9-5.788-8.119 0 0-6.495-4.048-10.224-3.78-3.729.267-6.251 5.66-6.251 5.66s-2.757 2.749-3.474 5.566c-.68 2.672-.995 6.312-1.025 6.679-1.42-.213-2.76.563-3.258 2.551-.665 2.66-.22 5.627 1.762 6.776.929.538 1.62.622 2.092.559-.218 2.512-.336 4.96.119 6.713.466 1.8 2.321 4.202 3.968 5.974-.335 4.278-1.025 10.212-2.381 13.085l-.088-.215c-.051.086-.547.045-1.037.003-.47-.039-.932-.078-.992-.003-2.526 3.164-10.318 7.464-16.001 9.837-5.684 2.373-9.795 6.607-13.458 16.099-3.663 9.493-6.333 28.071-6.333 28.071s1.01-.008 2.776.169c-.003.264-.008.831-.004 1.634.011 3.712.17 12.492 1.313 19.936 1.493 9.726 2.893 13.597 7.465 15.781 4.572 2.183 25.381 3.077 37.792.695 11.634-2.233 19.66-5.949 20.619-6.405 9.472 1.519 18.115 2.034 22.459-.978 4.572-3.17 5.356-15.916 5.344-24.468.002-1.408-.02-2.817-.066-4.224l7.192-1.026-.008-.033.005-.001s-1.356-6.216-3.477-13.614l.003.018-.003.006c-1.771-6.172-4.076-13.166-6.573-18.062l.001-.018a31.474 31.474 0 0 0-1.432-2.529 29.073 29.073 0 0 0-2.929-3.809l.003.024-.044-.049a76.664 76.664 0 0 0-1.65 2.008c-5.215-6.558-13.587-10.94-19.493-14.031-2.776-1.454-5.007-2.621-6.109-3.596a7.61 7.61 0 0 1-1.428-1.695l-.1.21c-1.86-3.55-2.904-9.509-3.165-13.59 2.081-1.77 3.813-3.938 3.813-6.958 0-1.32-.041-3.091-.093-4.946.448.039 1.082-.067 1.919-.57 1.912-1.149 2.33-4.114 1.692-6.776-.404-1.682-1.387-2.498-2.504-2.58a4.39 4.39 0 0 0-.014-.198c-.232-2.093-.549-4.709-.935-5.781Zm1.131 126.12c-4.957-.865-11.757-2.127-16.864-3.367-1.148-.279-2.389-.61-3.682-.977l.226-.001c2.97.792 6.025 1.522 9.018 2.107 1.495.292 3.025.6 4.575.911h.002c2.215.445 4.472.898 6.725 1.327Zm-41.294-18.746-.405-6.083c.481.261.734.416.734.416v5.652l-.33.015Z" fill="#F0F1F2" fill-rule="evenodd"></path><path d="M223.072 150.961c5.845 13.464 17.999 27.993 17.999 27.993 4.398-1.069 16.415-17.314 21.814-27.993-4.126-6.171-6.033-19.541-5.84-25.49l-28.116-2.614s-1.879 21.802-5.857 28.104Z" fill="#FFB17C"></path><path d="M165.032 231.312s7.336-.057 18.075 2.733c10.738 2.789 17.41 6.705 17.41 6.705v30.454l91.245-.427-.451-36.732 32.654-4.475s-7.816-34.438-16.702-47.777c-11.13-16.718-36.923-24.929-42.737-29.861a11.609 11.609 0 0 1-2.249-2.559c-4.643 9.419-17.226 26.921-21.009 27.864 0 0-12.877-14.873-17.903-26.749a6.222 6.222 0 0 1-.52.729c-3.979 4.778-17.7 9.818-26.65 13.402-8.949 3.583-15.423 9.975-21.191 24.308-5.767 14.334-9.972 42.385-9.972 42.385Z" fill="#E3E5E8"></path><path d="m218.27 154.758 4.726-3.852-3.117 38.644c17.452 4.987 32.41 3.74 46.122 0l-1.299-37.461 5.338 3.202c4.155 20.985 4.687 59.192 14.036 66.671 5.423 4.339 5.194 10.389 6.233 11.22v21.816h-91.621c-2.077-8.519 2.493-26.927 7.479-29.919 4.987-2.992 9.817-47.882 12.103-70.321Z" fill="rgb(0,45,84)"></path><path d="M263.242 87.18c-1.757-4.684-6.18-10.418-9.115-12.258 0 0-10.226-6.112-16.099-5.708-5.873.404-9.844 8.547-9.844 8.547s-4.34 4.15-5.469 8.403c-1.128 4.254-2.569 10.454-2.569 10.454s1.354 2.916 1.961 2.716c.608-.2 40.437 1.398 40.437 1.398a5.262 5.262 0 0 0 1.734-2.119c.381-.847 1.229-1.071 1.133-1.995-.364-3.16-1.561-7.819-2.169-9.438Z" fill="#540404"></path><path d="M250.986 77.657c-3.359-.469-5.49.938-9.037.838-3.546-.1-6.328-1.446-8.051-.838-1.724.608-6.355 3.19-8.282 7.445-1.927 4.254-3.109 8.977-2.605 14.955.503 5.977-2.3 15.66-.785 21.255 1.011 3.746 6.177 9.216 8.911 11.547 2.735 2.331 5.773 4.34 11.038 4.34 5.265 0 9.015-3.646 13.065-6.58 4.05-2.934 7.9-6.537 7.9-11.955 0-6.381-.656-19.724-.456-21.95.2-2.228-1.736-8.895-3.568-12.155-2.001-3.56-5.382-6.516-8.13-6.902Z" fill="#FFC192"></path><path d="M261.587 97.077c2.799-1.734 6.086-.992 7.092 3.028 1.006 4.019.347 8.496-2.663 10.23s-4.349.347-4.349.347l-.08-13.605Z" fill="#FFC192"></path><path d="m261.653 106.742-.038-6.211c.316-.347 1.644-1.616 3.163-1.248 1.733.423 2.319 3.672 1.55 5.628-.77 1.956-2.518 2.48-4.675 1.831Z" fill="#FFB17C"></path><path d="M223.364 97.077c-2.92-1.734-6.346-.992-7.394 3.024-1.047 4.016-.346 8.497 2.775 10.231s4.535.347 4.535.347l.084-13.602Z" fill="#FFC192"></path><path d="m223.305 106.739.038-6.211c-.33-.347-1.713-1.616-3.302-1.249-1.82.427-2.427 3.673-1.612 5.632.815 1.96 2.618 2.48 4.876 1.828Z" fill="#FFB17C"></path><path clip-rule="evenodd" d="m265.6 224.9-.51.039.51-.039v.001l.006.068.014.201.054.764c.044.662.104 1.613.167 2.774.127 2.321.265 5.48.311 8.834.046 3.352.002 6.906-.239 10.013-.239 3.084-.675 5.804-1.449 7.437l-.092.192-.201.071c-4.765 1.68-10.613 2.173-17.307 1.924-6.699-.25-14.283-1.245-22.537-2.566l-.316-.051-.093-.306a69.759 69.759 0 0 1-2.967-21.487c.054-2.746.267-4.969.468-6.508a38.143 38.143 0 0 1 .357-2.242l.025-.122.006-.031.002-.009.001-.002s0-.002.5.109l-.5-.111.09-.411 43.665.996.035.462Zm-42.87-.415-.033.179c-.069.393-.164.977-.262 1.73a58.84 58.84 0 0 0-.46 6.396 68.77 68.77 0 0 0 2.831 20.862c8.12 1.295 15.546 2.259 22.096 2.503 6.54.244 12.169-.233 16.723-1.794.634-1.471 1.038-3.931 1.267-6.885.237-3.063.282-6.583.236-9.92a222.651 222.651 0 0 0-.477-11.553l-.038-.562-41.883-.956Z" fill="rgb(0,45,84)" fill-rule="evenodd"></path><path clip-rule="evenodd" d="M224.172 227.384a.512.512 0 0 1-.533.49l-1.733-.072a.511.511 0 1 1 .042-1.023l1.733.072c.282.012.502.25.491.533ZM262.281 228.966a.513.513 0 0 1-.533.49l-2.155-.09a.512.512 0 1 1 .042-1.023l2.155.09c.283.012.502.25.491.533Zm-6.466-.27a.511.511 0 0 1-.533.49l-4.31-.18a.513.513 0 0 1 .042-1.022l4.311.18c.282.011.502.25.49.532Zm-8.62-.359a.512.512 0 0 1-.533.489l-4.311-.179a.513.513 0 0 1 .043-1.023l4.31.18c.283.012.502.25.491.533Zm-8.621-.36a.512.512 0 0 1-.533.49l-4.31-.18a.512.512 0 1 1 .042-1.022l4.31.179a.513.513 0 0 1 .491.533Zm-8.621-.36a.51.51 0 0 1-.533.49l-2.155-.089a.513.513 0 0 1 .043-1.023l2.155.09c.282.012.502.25.49.532ZM265.831 229.102a.51.51 0 0 1-.533.49l-1.733-.072a.511.511 0 1 1 .043-1.023l1.732.072a.513.513 0 0 1 .491.533Z" fill="rgb(0,45,84)" fill-rule="evenodd"></path><path d="M318.593 228.819s-6.342.794-13.678 1.793a63.687 63.687 0 0 0-13.53 3.483l-1.933 15.237s-13.874 1.597-26.957 3.189c-13.084 1.592-35.088-2.787-40.84-3.385-5.752-.598-22.2.196-22.2.196l-1.389 10.756s25.772 9.762 49.162 14.146c23.389 4.383 52.249 11.003 63.337 3.632 11.087-7.371 8.028-49.047 8.028-49.047Z" fill="#FFC192"></path><path d="M199.312 239.415s-9.481-3.754-18.15-6.002c-8.67-2.248-11.755-2.098-11.755-2.098s-.294 18.133 2.057 32.82c2.351 14.687 4.555 20.532 11.755 23.829 7.2 3.297 39.968 4.646 59.511 1.049s32.62-9.741 32.62-9.741-22.628-3.426-36.882-6.744c-14.253-3.319-37.662-11.587-37.662-11.587l-1.494-21.526ZM289.063 248.715l1.958-14.779a66.875 66.875 0 0 1 13.708-3.378c7.432-.969 13.858-1.739 13.858-1.739.469 7.055.518 14.131.146 21.192-8.487-.778-22.668-2.061-29.67-1.296Z" fill="#FFB17C"></path><path d="M169.436 237.247c-.07-3.623-.029-5.932-.029-5.932s3.043-.139 11.591 1.937c8.549 2.077 19.56 6.787 19.56 6.787-17.353-3.227-27.496-3.033-31.122-2.792Z" fill="#0A4FA9"></path><path clip-rule="evenodd" d="M265.978 92.605s-24.638 8.033-46.405-4.022c-2.988-3.567 13.154-8.994 13.154-8.994l2.875-5.978 23.421 7.613s1.628 2.853 3.519 5.075c1.892 2.222 3.437 1.146 3.436 6.306Z" fill="rgb(0,45,84)" fill-rule="evenodd"></path><path clip-rule="evenodd" d="M222.733 84.775s.002-5.915 3.715-11.644c8.312-7.79 16.57-6.65 20.233-5.745 3.648.908 14.138 3.982 16.734 8.185 2.596 4.203-.003 11.75-.003 11.75s-27.243-7.402-40.679-2.546Z" fill="rgb(0,45,84)" fill-rule="evenodd"></path><path d="m241.778 104.576-2.558 9.168s-.913 2.662.343 2.429c0 0 2.684.747 3.577-1.902.892-2.649-.126-9.915-.126-9.915" fill="#EC702C"></path><path d="M249.627 101.856c-.952-.177-1.83-.257-2.563-.198a2.067 2.067 0 0 1-.046-.73c.107-1.349 1.399-2.212 2.862-1.926 1.463.287 2.567 1.623 2.459 2.973a2.103 2.103 0 0 1-.169.681 10.39 10.39 0 0 0-2.543-.8ZM234.721 101.64c-.874.129-1.661.336-2.317.576a1.398 1.398 0 0 1-.152-.554c-.082-1.081.962-2.117 2.3-2.325 1.346-.192 2.497.515 2.561 1.606.012.198-.003.39-.062.584-.647-.05-1.456-.016-2.33.113Z" fill="rgb(0,45,84)"></path><path d="M248.906 111.843c.193.338.484.621.775.904.894.657 2.301.843 3.477.623 1.177-.22 2.494-.879 3.461-1.698 1.065-.874 1.916-1.896 2.142-3.1.834-3.343-3.149-4.396-6.152-3.496-1.766.556-3.323 1.71-4.063 3.385-.303 1.069-.217 2.365.36 3.382ZM236.21 112.584c-.193.338-.484.621-.775.904-.894.657-2.301.843-3.477.623-1.177-.22-2.494-.88-3.46-1.698-1.065-.874-1.916-1.896-2.143-3.1-.833-3.343 3.149-4.396 6.152-3.496 1.766.556 3.323 1.71 4.063 3.385.303 1.069.218 2.365-.36 3.382Z" fill="#FFB17C"></path><path d="M171 120.074c1.83 4.753-1.492 27.079-2.221 33.538-.68 5.992 1.057 14.141 5.077 11.823 0 0 1.333 4.753-6.458 8.169a24.723 24.723 0 0 1-14.623 1.705l-.977-24.253L171 120.074ZM122.585 123.849c-1.83 4.753-6.281 18.304-5.552 24.762.679 5.993-.558 16.698-4.578 14.38 0 0-1.332 4.753 6.459 8.169a24.72 24.72 0 0 0 14.622 1.705l.978-24.254-11.929-24.762Z" fill="#382011"></path><path d="M126.139 130.329c-2.311-1.392-5.028-.79-5.856 2.418-.828 3.208-.295 6.783 2.199 8.169 2.493 1.387 3.592.291 3.592.291l.065-10.878Z" fill="#FFC192"></path><path d="m126.109 137.868.029-4.605c-.249-.25-1.3-1.197-2.504-.925-1.385.316-1.84 2.722-1.226 4.173.613 1.452 1.986 1.838 3.701 1.357Z" fill="#FFB17C"></path><path d="M163.901 133.737c3.505-.578 6.621 1.035 6.165 4.636-.455 3.601-2.753 7.072-6.468 7.583-3.716.511-4.592-1.032-4.592-1.032l4.895-11.187Z" fill="#FFC192"></path><path d="m160.784 141.564 2.151-5.278c.432-.187 2.194-.857 3.568-.065 1.578.909 1.003 3.846-.45 5.254-1.454 1.409-3.362 1.311-5.269.089ZM142.54 197.586c2.259.277 19.76-18.654 19.76-18.654-.903-.643-4.849-5.109-7.07-13.549-1.11-4.22 0-14.215 0-14.215l-24.643-1.999c0 6.595.027 25.682-4.133 29.763.666 1.214 1.174.674 1.681 1.998 3.154 8.269 12.149 16.379 14.405 16.656Z" fill="#FFB17C"></path><path d="M125.111 124.256c-1.026 7.552-.973 14.139.364 20.11 1.337 5.97 5.73 17.67 16.208 18.403 10.479.733 16.333-9.142 18.283-12.553 1.95-3.412 7.551-19.621 7.551-19.621s4.509-19.989-8.653-24.498c-13.161-4.509-31.315.244-33.753 18.159Z" fill="#FFC192"></path><path d="M130.715 123.283c5.388-3.718 12.064-.609 20.717-5.242 8.653-4.633 11.336-8.387 11.336-8.387s-4.313 1.788-3.096 5.311c1.217 3.523 6.996 9.921 6.996 12.849 0 2.927-1.71 9.506-1.71 9.506s4.886-6.583 5.73-9.506c.844-2.923 1.332-9.626-.489-14.259-1.821-4.634-5.241-6.339-5.726-7.552-.484-1.213-3.033-8.618-12.797-10.603-7.799-1.586-17.913 1.332-22.786 7.8-4.202 5.566-5.242 9.995-6.094 15.845-.853 5.85-3.101 9.246-2.212 11.912-2.075 1.705 1.11 2.221 1.11 2.221s-1.435.795 2.221-.667c3.656-1.461 3.269-6.794 6.8-9.228Z" fill="#382011"></path><path d="M146.06 99.042c22.074-2.904 24.778 24.294 23.352 36.732l-4.182 1.028c.45-13.233 3.441-31.867-16.265-33.112-14.573-.922-24.585 19.396-24.359 29.046l-4.686.58c4.729-4.555-.854-30.721 26.14-34.274Z" fill="#99A0FF"></path><path d="m144.083 134.958-1.769 6.873s-.487 1.6.446 1.407c0 0 1.859.915 2.484-1.073.625-1.989-.243-7.39-.243-7.39" fill="#EC702C"></path><path d="M137.32 131.051c.846.076 1.609.216 2.22.44.097-.19.166-.378.193-.603.194-1.16-.723-2.191-2.027-2.296-1.304-.104-2.523.758-2.716 1.918-.042.213-.028.42 0 .613a9.046 9.046 0 0 1 2.33-.072ZM152.115 131.538c.823.036 1.573.152 2.204.311a1.31 1.31 0 0 0 .087-.528c-.028-1.011-1.095-1.87-2.356-1.935-1.266-.048-2.265.719-2.219 1.736.008.185.04.361.114.536.594-.11 1.348-.156 2.17-.12Z" fill="rgb(0,45,84)"></path><path d="M137.012 141.832c-.179.316-.45.58-.721.843-.834.613-2.145.786-3.242.581-1.096-.206-2.324-.82-3.224-1.583-.993-.814-1.786-1.767-1.997-2.889-.777-3.115 2.935-4.097 5.733-3.258 1.647.518 3.098 1.593 3.787 3.155.283.996.203 2.204-.336 3.151ZM151.493 142.994c.179.316.451.579.722.843.833.612 2.145.786 3.241.58 1.096-.205 2.324-.819 3.225-1.582.992-.815 1.786-1.767 1.997-2.89.776-3.115-2.935-4.096-5.734-3.258-1.646.518-3.097 1.594-3.787 3.155-.282.997-.202 2.205.336 3.152Z" fill="#FFB17C"></path><path d="M204.01 243.092s-.897 2.246-10.39 4.634c-9.493 2.388-13.073 5.739-13.073 5.739v26.066l-80.663-.365.399-31.44-22.768-4.634s.81-28.672 8.666-40.089c9.84-14.309 26.275-16.67 31.415-20.891 2.323-1.162 9.908-4.987 10.456-5.808 4.104 8.062 12.34 16.62 15.684 17.427 0 0 11.821-8.425 16.265-18.59.137.219 1.574 1.546 1.742 1.743 3.517 4.089 14.713 8.352 22.624 11.419 7.912 3.067 10.705 8.797 15.803 21.065 5.099 12.268 3.84 33.724 3.84 33.724Z" fill="#fff"></path><path d="M83.625 244.676s4.936.599 10.645 1.352a50.847 50.847 0 0 1 10.53 2.628l1.504 11.497s10.798 1.204 20.98 2.405c10.183 1.201 27.308-2.103 31.785-2.554 4.476-.45 17.777 0 17.777 0l.581 8.264s-20.058 7.365-38.261 10.672c-18.203 3.307-40.664 8.302-49.293 2.74-8.629-5.561-6.248-37.004-6.248-37.004Z" fill="#FFB17C"></path><path d="M176.265 251.824s8.264-2.693 15.108-4.396c6.844-1.702 9.28-1.588 9.28-1.588s.232 13.731-1.624 24.853c-1.856 11.122-3.596 15.547-9.28 18.044-5.684 2.497-31.553 3.518-46.981.795-15.429-2.724-25.753-7.377-25.753-7.377s17.864-2.594 29.117-5.107c11.252-2.513 31.295-8.958 31.295-8.958l-1.162-16.266ZM114.114 254.086l14.519 10.341-21.739-1.162c-1.986-10.979-17.87-9.179-9.567-16.559 6.643-5.903 13.959 2.46 16.787 7.38Z" fill="#FFC192"></path><path d="M104.236 244.855v-23.237c2.532 11.65 3.74 23.743 5.163 26.263l.646.459c-.223.075-.437-.089-.646-.459-1.453-1.027-3.666-2.527-5.163-3.026ZM176.847 260.54l-1.742-41.246c-4.527 31.689-7.747 39.424-9.661 40.552-.335.014-.606.05-.795.113.234.078.499.062.795-.113 2.756-.117 9.85 1.212 11.403.694Z" fill="#F9FAFA"></path><path d="M167.295 107.655c1.246 1.869 1.127 4.136-.265 5.063-1.392.927-3.529.163-4.774-1.706s-1.126-4.135.265-5.063c1.392-.927 3.529-.163 4.774 1.706Z" fill="#99A0FF"></path><path d="M164.972 106.493c1.245 1.869 1.126 4.136-.265 5.063-1.392.927-3.529.163-4.774-1.706s-1.127-4.136.265-5.063c1.392-.927 3.529-.163 4.774 1.706Z" fill="#C4C5FF"></path><path d="M176.076 113.191c-3.667-6.573-11.078-7.455-13.752-7.76 4.584 2.191 5.252 7.691 6.971 11.038 2.641-.383 7.39.458 6.781-3.278Z" fill="#C4C5FF"></path><path d="M165.18 94.486c3.182 4.914 1.11 12.464.346 14.433-4.683-1.086-5.549-9.79-7.223-12.19.482-6.87 6.095-3.45 6.877-2.243Z" fill="#99A0FF"></path><path d="M4.392 202.712a3.33 3.33 0 0 1 3.332-3.329h139.581a3.33 3.33 0 0 1 3.333 3.329v27.05a3.33 3.33 0 0 1-3.333 3.328H7.725a3.33 3.33 0 0 1-3.333-3.328v-27.05Z" fill="#fff"></path><g filter="url(#a)"><rect fill="#fff" height="32.426" rx="3.556" width="140.688" x="1.373" y="200.646"></rect></g><path clip-rule="evenodd" d="M98.503 207.198a.197.197 0 0 0-.363 0l-2.798 6.571a.117.117 0 0 1-.1.071l-7.37.613a.118.118 0 0 0-.067.208l5.596 4.777a.12.12 0 0 1 .039.118l-1.688 7.118a.118.118 0 0 0 .176.129l6.333-3.788a.12.12 0 0 1 .122 0l6.329 3.788c.09.054.2-.027.176-.129l-1.687-7.118a.117.117 0 0 1 .038-.118l5.597-4.777a.118.118 0 0 0-.067-.208l-7.372-.613a.117.117 0 0 1-.099-.071l-2.795-6.571ZM72.53 207.198a.197.197 0 0 0-.363 0l-2.798 6.571a.117.117 0 0 1-.099.071l-7.37.613a.118.118 0 0 0-.068.208l5.597 4.777a.119.119 0 0 1 .038.118l-1.688 7.118a.118.118 0 0 0 .177.129l6.332-3.788a.12.12 0 0 1 .122 0l6.329 3.788c.09.054.2-.027.176-.129l-1.687-7.118a.119.119 0 0 1 .038-.118l5.597-4.777a.118.118 0 0 0-.067-.208l-7.371-.613a.117.117 0 0 1-.1-.071l-2.794-6.571ZM46.558 207.198a.197.197 0 0 0-.364 0l-2.798 6.571a.117.117 0 0 1-.1.071l-7.37.613a.118.118 0 0 0-.067.208l5.597 4.777a.12.12 0 0 1 .038.118l-1.688 7.118a.118.118 0 0 0 .176.129l6.333-3.788a.12.12 0 0 1 .122 0l6.329 3.788c.09.054.2-.027.176-.129l-1.687-7.118a.12.12 0 0 1 .038-.118l5.597-4.777a.118.118 0 0 0-.067-.208l-7.372-.613a.117.117 0 0 1-.099-.071l-2.794-6.571ZM20.584 207.198a.197.197 0 0 0-.363 0l-2.798 6.571a.117.117 0 0 1-.1.071l-7.37.613a.118.118 0 0 0-.067.208l5.597 4.777a.119.119 0 0 1 .038.118l-1.688 7.118a.118.118 0 0 0 .176.129l6.333-3.788a.12.12 0 0 1 .122 0l6.329 3.788c.09.054.2-.027.176-.129l-1.687-7.118a.119.119 0 0 1 .038-.118l5.597-4.777a.118.118 0 0 0-.067-.208l-7.372-.613a.118.118 0 0 1-.099-.071l-2.795-6.571ZM124.477 207.11a.198.198 0 0 0-.363 0l-2.798 6.467a.121.121 0 0 1-.099.071l-7.368.603a.118.118 0 0 0-.066.208l5.591 4.697a.12.12 0 0 1 .039.119l-1.687 7a.119.119 0 0 0 .176.13l6.333-3.728a.12.12 0 0 1 .121 0l6.329 3.728c.091.053.2-.028.176-.13l-1.686-7a.117.117 0 0 1 .039-.119l5.591-4.697a.118.118 0 0 0-.066-.208l-7.368-.603a.121.121 0 0 1-.1-.071l-2.794-6.467Z" fill="#F7BE2C" fill-rule="evenodd"></path></svg>