<svg fill="none" height="100%" version="1.1" width="100%" xmlns="http://www.w3.org/2000/svg" viewBox="0 0 351 350"><g><path d="M22.52 220.703c16.304 88.389 200.67 145.825 262.338 42.777 88.485-147.859-26.884-191.983-65.243-151.339-26.294 27.854-12.886-13.508-87.061-40.282C53.512 43.318-1.994 137.532 22.52 220.703Z" fill="#F9FAFA"></path><path d="M268.717 282.984c-96.381 85.152-192.358 16.854-228.423-26.814H288.874c-2.539 8.562-16.843 23.695-20.157 26.814Z" fill="#F0F1F2"></path><path clip-rule="evenodd" d="M285.47 97.346c-8.551-4.6-13.864-13.424-13.864-23.03v-32.63c0-1.062.844-1.937 1.919-1.992l9.191-.465 4.902-.955a25.147 25.147 0 0 0 13.741-7.683l.932-1.019a2.042 2.042 0 0 1 3.003 0l.933 1.019a25.147 25.147 0 0 0 13.741 7.683l4.903.955 9.19.465a2.007 2.007 0 0 1 1.919 1.993v32.63c0 9.6-5.317 18.433-13.863 23.029l-17.355 9.334a2.046 2.046 0 0 1-1.937 0l-17.355-9.334Z" fill="rgb(32,133,59)" fill-rule="evenodd"></path><path clip-rule="evenodd" d="m324.87 39.388-4.902-.956a25.146 25.146 0 0 1-13.741-7.683l-.933-1.019a2.026 2.026 0 0 0-1.501-.658v78.01c.334 0 .667-.081.969-.243l17.354-9.334c8.547-4.597 13.864-13.43 13.864-23.029v-32.63c0-1.063-.844-1.938-1.919-1.993l-9.191-.465Z" fill="rgb(44,179,79)" fill-rule="evenodd"></path><path clip-rule="evenodd" d="M323.794 60.77c0 .553-.198 1.023-.594 1.41l-15.335 15.006-2.88 2.818c-.396.387-.876.58-1.441.58a1.983 1.983 0 0 1-1.44-.58l-2.881-2.818-7.667-7.503a1.9 1.9 0 0 1-.593-1.41 1.9 1.9 0 0 1 .593-1.409l2.881-2.819c.395-.387.875-.58 1.44-.58s1.045.193 1.44.58l6.227 6.114 13.895-13.617c.396-.387.876-.58 1.441-.58.564 0 1.044.193 1.44.58l2.88 2.819c.396.387.594.857.594 1.41Z" fill="#fff" fill-rule="evenodd"></path><path d="M40.037 170.353h91.609v85.883H40.037v-85.883Z" fill="#fff" fill-opacity="0.6"></path><path d="M131.646 170.353h86.838v85.883h-86.838v-85.883ZM40.037 248.603h91.609v7.634H40.037v-7.634Z" fill="#F0F1F2"></path><path d="M131.646 248.603h86.838v7.634h-86.838v-7.634Z" fill="#E3E5E8"></path><path d="M84.251 133.135h88.429l-41.024 37.216H40.037l44.214-37.216Z" fill="#F0F1F2"></path><path d="m172.202 133.135 45.805 37.455h-86.571l40.766-37.455ZM161.566 203.899h37.689v52.303h-37.689v-52.303Z" fill="#E3E5E8"></path><path d="M61.03 195.163h16.223v21.948H61.031v-21.948ZM85.842 195.163h16.222v21.948H85.842v-21.948Z" fill="#F0F1F2"></path><mask height="337" id="b" maskUnits="userSpaceOnUse" style="mask-type:alpha" width="322" x="5" y="-15"><path d="M319.812 111.63c24.385 89.864-24.821 181.43-109.905 204.518-85.085 23.088-173.827-31.045-198.212-120.909C-12.69 105.375 36.517 13.809 121.601-9.278c85.084-23.088 173.826 31.045 198.211 120.908Z" fill="#C4C4C4"></path></mask><g mask="url(#b)"><path d="M180.643 176.296c-7.534-2.648-34.805-2.384-46.212-.001-13.097 2.754-13.022 8.579-15.399 30.255 0 55.135-4.401 82.236-4.401 82.236l110.675 2.893-6.731-65.872c-.018.017-7.426-38.779-37.932-49.511Z" fill="#fff"></path><path clip-rule="evenodd" d="M306.551 137.25c2.431.709 5.038 1.47 6.372 3.059 1.93 2.357 3.099 4.383 1.901 11.16-.841 4.4-3.911 7.112-6.025 8.978l-.233.206c-.071.06-.127.095-.183.129-.055.035-.111.07-.182.13-1.096.774-1.953 1.833-2.429 3.057-4.442 12.849-23.486 58.269-41.361 64.595-31.017 11.007-61.176-.292-72.245-17.288-2.681-4.052-2.404-9.068-2.125-14.126.153-2.765.306-5.543-.023-8.182l2.147-3.285c2.947-4.463 9.564-2.291 9.564-2.291 7.456.657 15.205 4.247 22.915 7.819 11.897 5.511 23.7 10.979 34.19 5.565 1.145-.83 2.344-1.68 3.578-2.556 8.814-6.252 19.463-13.806 25.422-24.595l.477-.854c3.362-6 7.141-12.745 6.248-19.542-.88-6.537-1.048-15.806 2.061-26.372 3.378-11.228 6.273-6.625 5.529-.81-.154 1.191-.365 2.403-.574 3.598-.563 3.225-1.104 6.33-.437 8.601.461 1.559 2.839 2.252 5.413 3.004Z" fill="#FFB17C" fill-rule="evenodd"></path><path d="M236.033 190.508c-1.301-.372-13.112-10.459-43.784-12.69-7.139 0-17.445 69.227 9.323 58.632 6.321 1.115 29.139 7.568 33.06 0 2.84-5.481 3.26-35.346 1.401-45.942ZM148.375 174.176c-24.522 3.846-50.967 5.953-58.18 57.401 9.617 9.135 32.696 42.312 45.679 38.465 3.098-4.518-.159-55.084 0-61.544.211-7.29-15.387-34.322 12.501-34.322Z" fill="#fff"></path><path clip-rule="evenodd" d="M195.495 178.984s11.869 71.182 20.353 85.655l8.485 14.474 37.515 173.937c-22.065 7.139-35.065 9.571-59.141 11.54l-15.605-49.511-12.413 49.511c-22.949 1.689-36.299.495-60.446-6.251V289.051s15.315-7.078 15.315-22.77-2.82-88.259-2.82-88.259l9.135-2.404s2.177 53.004 8.655 61.247c6.478 8.243 45.187 13.027 47.969 2.242 2.781-10.785-6.618-62.527-6.618-62.527l9.616 2.404Z" fill="rgb(0,45,84)" fill-rule="evenodd"></path><path clip-rule="evenodd" d="m126.407 217 13.237-1.642L141 224.59l-14.593 2.171V217Z" fill="#0E0F11" fill-rule="evenodd"></path><path clip-rule="evenodd" d="m128.308 218.836 10.192-1.43.81 5.825-10.738 1.288-.264-5.683Z" fill="rgb(0,45,84)" fill-rule="evenodd"></path><path clip-rule="evenodd" d="m205.287 218.217-13.325-.071-.264 9.32 14.751.442-1.162-9.691Z" fill="#0E0F11" fill-rule="evenodd"></path><path clip-rule="evenodd" d="m203.632 220.247-10.297-.194-.106 5.878h10.808l-.405-5.684Z" fill="rgb(0,45,84)" fill-rule="evenodd"></path><path clip-rule="evenodd" d="m196.313 262.239-.548.084.548-.084v.002l.011.072.031.213a227.957 227.957 0 0 1 .515 3.755c.317 2.465.712 5.823 1.023 9.397.312 3.571.54 7.365.523 10.699-.018 3.309-.276 6.246-.985 8.051l-.084.213-.211.092c-5.011 2.184-11.284 3.192-18.528 3.477-7.248.286-15.51-.15-24.521-.88l-.345-.028-.124-.319a73.684 73.684 0 0 1-4.876-22.673 63.107 63.107 0 0 1-.002-6.979c.048-.829.106-1.476.152-1.917.024-.22.044-.39.058-.505l.018-.131.004-.034.002-.01v-.002s0-.002.549.075l-.549-.077.066-.446 47.198-2.535.075.49Zm-46.297 3.09a39.976 39.976 0 0 0-.169 2.059 62.181 62.181 0 0 0 .002 6.86 72.629 72.629 0 0 0 4.68 22.018c8.864.712 16.953 1.129 24.04.849 7.077-.279 13.115-1.251 17.908-3.291.57-1.621.814-4.277.83-7.447.017-3.287-.208-7.045-.518-10.6-.31-3.554-.703-6.897-1.019-9.353a234.372 234.372 0 0 0-.395-2.93l-.086-.597-45.273 2.432Z" fill="#fff" fill-opacity="0.3" fill-rule="evenodd"></path><path clip-rule="evenodd" d="M151.758 268.291a.556.556 0 0 1-.537.569l-1.876.067a.548.548 0 1 1-.034-1.098l1.876-.068a.548.548 0 0 1 .571.53ZM193.049 266.861a.559.559 0 0 1-.538.573l-2.335.083a.55.55 0 0 1-.571-.534.557.557 0 0 1 .537-.573l2.335-.083a.552.552 0 0 1 .572.534Zm-7.005.249a.559.559 0 0 1-.538.573l-4.67.166a.55.55 0 0 1-.571-.534.558.558 0 0 1 .538-.573l4.669-.166a.551.551 0 0 1 .572.534Zm-9.34.332a.558.558 0 0 1-.538.573l-4.669.166a.551.551 0 0 1-.572-.534.559.559 0 0 1 .538-.573l4.67-.166a.55.55 0 0 1 .571.534Zm-9.34.332a.557.557 0 0 1-.537.573l-4.67.166a.55.55 0 0 1-.571-.533.557.557 0 0 1 .537-.574l4.67-.166a.55.55 0 0 1 .571.534Zm-9.339.332a.558.558 0 0 1-.538.573l-2.335.083a.55.55 0 0 1-.571-.533.556.556 0 0 1 .537-.573l2.335-.084a.553.553 0 0 1 .572.534ZM196.903 266.756a.554.554 0 0 1-.537.569l-1.876.068a.549.549 0 0 1-.571-.529.556.556 0 0 1 .538-.569l1.876-.068a.547.547 0 0 1 .57.529Z" fill="#fff" fill-opacity="0.3" fill-rule="evenodd"></path><path clip-rule="evenodd" d="M147.257 141.853a2 2 0 0 0-2.849 1.811v30.38c0 .43.139.848.395 1.193l15.106 20.32a2 2 0 0 0 3.248-.053l12.339-17.78a2 2 0 0 0 .33-1.462l-3.546-21.721a1.998 1.998 0 0 0-1.125-1.489l-23.898-11.199Z" fill="#FFB17C" fill-rule="evenodd"></path><path clip-rule="evenodd" d="M140.994 107.702c8.731-7.907 21.387-8.49 28.217-.388 4.894 5.825 9.806 14.297 12.921 21.217 2.482 5.489 2.722 13.834 3.197 19.977 0 6.411.076 9.922-4.061 13.417-5.326 2.116-8.515 2.145-13.796 1.138-12.269-2.347-17.078-6.767-24.384-17.199-8.097-11.544-17.708-27.748-2.094-38.162Z" fill="#FFC192" fill-rule="evenodd"></path><path clip-rule="evenodd" d="M166.054 131.106c.704-1.977 5.579 7.969 7.84 9.716-1.41 3.357-5.64 2.329-5.832 1.696-.862-2.842-3.011-8.623-2.008-11.412Z" fill="#EC702C" fill-rule="evenodd" opacity="0.4"></path><path clip-rule="evenodd" d="M171.746 123.712c1.883-1.094 4.154 2.683 1.426 3.76-2.729 1.077-2.447-1.783-2.095-2.312-1.514.565-3.081 2.189-2.447 1.112.616-1.077 3.116-2.56 3.116-2.56ZM156.966 127.914c2.183-1.269 4.815 3.109 1.653 4.357-3.162 1.248-2.836-2.066-2.428-2.68-1.755.655-3.57 2.537-2.836 1.289.735-1.248 3.611-2.966 3.611-2.966Z" fill="#0E0F11" fill-rule="evenodd"></path><path d="M127.65 116.3c.476 4.289 2.359 10.75 4.102 14.633 2.13 4.748 6.038 12.356 9.945 10.732 3.38-1.412 4.313-2.471 1.62-11.579-1.901-6.39-6.883-13.433-6.672-12.991-.686-2.136 3.609-5.19 1.25-5.631-1.373-.247-10.544 2.153-10.245 4.836Z" fill="rgb(0,45,84)"></path><path clip-rule="evenodd" d="M145.394 135.468c-1.725-1.977-5.034-2.912-7.728-1.941-3.538 1.27-4.189 5.789-2.218 9.514 1.021 1.906 4.032 4.748 7.112 4.095 2.271-.495 3.89-1.36 4.771-3.672 1.584-4.183.052-5.719-1.937-7.996Z" fill="#FFC192" fill-rule="evenodd"></path><path clip-rule="evenodd" d="M145.465 118.842s28.622 6.319 40.17-2.048c3.591-2.771-8.52-5.366-8.52-5.366l-3.204-4.783-27.601 5.613-.845 6.584Z" fill="#3A3F46" fill-rule="evenodd"></path><path clip-rule="evenodd" d="M177.096 111.428s-1.426-8.578-5.985-17.157c-4.559-8.578-18.624-3.936-22.602-1.87-3.961 2.065-19.117 14.138-20.948 19.716-1.831 5.577 2.024 14.244 2.024 14.244s30.647-16.804 47.511-14.933Z" fill="rgb(0,45,84)" fill-rule="evenodd"></path><path d="m120.905 253.721-29.939-21.165c0 4.841-.185 29.226 0 41.495 6.916 56.709 15.179 35.248 25.589 38.037l4.35-58.367Z" fill="#FFB17C"></path><path d="M161.843 141.917c0 2.281-3.265 4.052-6.204 4.052-2.939 0-6.165-3.371-6.165-5.651 0-2.281 3.226-4.159 6.165-4.159s6.204 3.477 6.204 5.758ZM176.745 133.294c0 2.281 1.659 4.052 3.153 4.052s3.134-3.37 3.134-5.651c0-2.281-1.64-4.158-3.134-4.158s-3.153 3.477-3.153 5.757Z" fill="#FFB17C" fill-opacity="0.5"></path><path d="M142.832 136.774c1.461 2.014 1.201 2.945.784 4.616-1.136.757-3.726 2.045-4.998 1.136-1.531-1.094-1.058-5.388-.112-5.261-.038-.196.613-.491 4.326-.491Z" fill="#FFB17C"></path></g></g></svg>