<svg fill="none" height="100%" version="1.1" width="100%" xmlns="http://www.w3.org/2000/svg" viewBox="0 0 351 351"><g clip-path="url(#a)"><path d="M251.811 284.646c-81.02 49.958-254.277-5.997-223.742-123.09C71.882-6.456 192.256 43.566 191.334 99.989c-.628 38.672 18.205 1.698 97.605 37.068 84.619 37.685 10.465 126.842-37.128 147.589Z" fill="rgb(249,250,250)"></path><path clip-rule="evenodd" d="M177.955 71.293a53.834 53.834 0 0 1 7.987-2.569l.276 1.183a52.537 52.537 0 0 0-7.8 2.508l-.463-1.122Zm-10.946 6.171a50.677 50.677 0 0 1 3.471-2.354l.648 1.028a49.55 49.55 0 0 0-3.387 2.297l-.003.002a82.117 82.117 0 0 0-2.177 1.65l-.761-.949a82.058 82.058 0 0 1 2.209-1.674Zm27.198-10.096c1.38-.13 2.772-.215 4.174-.257h.001a76.096 76.096 0 0 1 3.648-.019l-.04 1.217a75.16 75.16 0 0 0-3.588.02 64.365 64.365 0 0 0-4.094.252l-.101-1.213Zm-37.646 19.168a83.67 83.67 0 0 1 3.994-3.835l.826.895a81.357 81.357 0 0 0-3.933 3.776l-.887-.836Zm52.741-18.966c2.411.273 4.81.657 7.184 1.151l-.271 1.191a77.454 77.454 0 0 0-7.07-1.132l.157-1.21Zm-58.221 25.188a83.216 83.216 0 0 1 1.756-2.134l.942.775a83.322 83.322 0 0 0-1.729 2.102 46.316 46.316 0 0 0-1.59 2.137l-1.012-.685a47.183 47.183 0 0 1 1.633-2.195Zm-61.594 28.315a71.97 71.97 0 0 1 4.452-1.313 78.846 78.846 0 0 1 3.743-.874l.24 1.191a75.838 75.838 0 0 0-3.682.86 70.17 70.17 0 0 0-4.374 1.29l-.379-1.154Zm-12.71 5.638a70.36 70.36 0 0 1 4.108-2.156l.533 1.092a69.412 69.412 0 0 0-4.037 2.118l-.004.002c-.538.301-1.078.611-1.614.929l-.628-1.04c.546-.324 1.095-.64 1.642-.945ZM143.33 103.8c1.09-1.38 2.103-2.856 3.101-4.355l1.031.658c-1.002 1.505-2.038 3.015-3.16 4.436l-.972-.739ZM70.39 130.813c.503-.379 1.017-.75 1.54-1.111l.7.995c-.51.352-1.013.713-1.501 1.083l-.006.004-.005.004a423.913 423.913 0 0 0-3.053 2.219l-.73-.972c1.03-.758 2.053-1.498 3.055-2.222Zm153.13-60.287a77.431 77.431 0 0 1 6.825 2.446l-.491 1.124a76.002 76.002 0 0 0-6.716-2.407l.382-1.163Zm-115.38 46.593c1.539-.229 3.075-.458 4.612-.705l.183 1.201c-1.542.248-3.093.479-4.639.71-.97.145-1.937.289-2.9.437l-.174-1.203c.975-.15 1.947-.295 2.918-.44Zm-52.473 25.653c1.778-1.794 3.69-3.489 5.654-5.1l.783.931c-1.939 1.591-3.818 3.257-5.558 5.014l-.879-.845Zm64.532-27.774a67.174 67.174 0 0 0 3.657-.945l.003-.001c.85-.242 1.714-.476 2.576-.708l.999-.271.314 1.174-1.009.273c-.859.232-1.709.461-2.55.701m13.401-6.046a17.594 17.594 0 0 0 2.114-1.541l.798.92a18.845 18.845 0 0 1-2.267 1.65v.001a25.246 25.246 0 0 1-3.377 1.722l-.475-1.118a23.863 23.863 0 0 0 3.207-1.634ZM47.1 155.316c.908-2.382 2.152-4.617 3.632-6.721l1.013.684c-1.43 2.034-2.622 4.179-3.488 6.452l-1.157-.415Zm189.795-79.268a72.033 72.033 0 0 1 6.207 3.698l-.702 1.01a71.004 71.004 0 0 0-6.102-3.634l.597-1.074ZM45.561 166.572a25.328 25.328 0 0 1-.07-3.809l1.234.053a24.144 24.144 0 0 0 .067 3.629c.1 1.078.277 2.136.523 3.175l-1.204.291a24.235 24.235 0 0 1-.55-3.339m203.327-82.52a65.087 65.087 0 0 1 5.282 4.897l-.902.845a63.888 63.888 0 0 0-5.184-4.807l.804-.935ZM52.054 181.875c-1.36-1.793-2.58-3.68-3.591-5.66l1.105-.559c.974 1.908 2.155 3.736 3.48 5.482l-.995.737Zm206.803-87.47a60.173 60.173 0 0 1 2.094 2.924c.667.994 1.302 2.01 1.903 3.044l-1.074.616a54.457 54.457 0 0 0-1.863-2.979 58.27 58.27 0 0 0-2.052-2.866l.992-.74ZM58.829 189.252a68.926 68.926 0 0 1-2.39-2.328l.895-.851a68.612 68.612 0 0 0 2.352 2.291l.006.005c.971.925 1.952 1.836 2.937 2.739l-.849.897a208.534 208.534 0 0 1-2.951-2.753Zm207.232-82.466a59.53 59.53 0 0 1 2.396 6.754l-1.189.348a58.514 58.514 0 0 0-2.348-6.619l1.141-.483ZM73.556 202.954c-1.877-1.897-3.826-3.723-5.808-5.535l.847-.897c1.988 1.817 3.954 3.658 5.852 5.576l-.89.856Zm196.48-82.421c.39 2.361.641 4.745.751 7.135l-1.234.072a60.16 60.16 0 0 0-.737-6.996l1.22-.211ZM81.299 212.054a59.944 59.944 0 0 0-2.398-3.172l.971-.766a61.266 61.266 0 0 1 2.447 3.236l.002.003c.591.85 1.167 1.709 1.728 2.576l-1.045.664a90.84 90.84 0 0 0-1.705-2.541Zm189.396-77.201a58.818 58.818 0 0 1-.957 7.137l-1.213-.217c.455-2.305.767-4.641.937-6.99l1.233.07Zm-2.803 14.118a53.767 53.767 0 0 1-2.753 6.7l-1.11-.52a52.532 52.532 0 0 0 2.69-6.547l1.173.367ZM89.084 225.234a139.53 139.53 0 0 0-2.907-5.399l1.08-.606a140.48 140.48 0 0 1 2.933 5.445l-1.106.56Zm172.395-63.285c-.683 1-1.404 1.979-2.163 2.934a56.445 56.445 0 0 1-2.243 2.651l-.92-.8a56.015 56.015 0 0 0 2.193-2.593 49.086 49.086 0 0 0 2.11-2.862l1.023.67Zm-167.11 74.376c-.846-1.866-1.7-3.729-2.578-5.58l1.121-.527a355.55 355.55 0 0 1 2.587 5.599l-1.13.508Zm157.791-63.889a87.569 87.569 0 0 1-5.336 4.427l-.752-.956a86.541 86.541 0 0 0 5.26-4.363l.828.892Zm-10.948 8.485a222.063 222.063 0 0 1-5.772 3.809l-.664-1.018a219.68 219.68 0 0 0 5.739-3.787l.697.996Zm-11.61 7.492a578.658 578.658 0 0 0-5.822 3.681l-.666-1.017a600.893 600.893 0 0 1 5.835-3.689l.653 1.025ZM98.153 244.75a950.74 950.74 0 0 1-1.263-2.81l1.132-.504c.42.937.84 1.873 1.261 2.806.553 1.22 1.111 2.442 1.679 3.662l-1.124.519a373.22 373.22 0 0 1-1.684-3.673Zm119.902-48.852a117.45 117.45 0 0 0-5.528 4.053l-.76-.949a117.94 117.94 0 0 1 5.587-4.097l.701.993Zm-10.73 8.476a59.671 59.671 0 0 0-4.717 4.899l-.941-.776a60.751 60.751 0 0 1 4.815-5.002l.843.879Zm-8.757 10.329a44.63 44.63 0 0 0-3.091 5.716l-1.129-.48a45.18 45.18 0 0 1 1.418-2.881l.545.279-.545-.279a45.86 45.86 0 0 1 1.758-2.994l1.044.639Zm-91.315 48.115a142.118 142.118 0 0 1-3.88-7.116l1.106-.559a139.44 139.44 0 0 0 3.847 7.056l-1.073.619Zm86.021-36.553a71.649 71.649 0 0 0-1.588 6.05l-1.208-.241c.454-2.074.982-4.13 1.615-6.153l1.181.344Zm-2.745 12.211a259.07 259.07 0 0 0-.913 6.217l-1.225-.147c.285-2.081.581-4.168.918-6.246l1.22.176Zm-73.908 37.614a76.931 76.931 0 0 1-4.998-6.427l1.021-.7a76.006 76.006 0 0 0 4.92 6.328l-.943.799Zm72.139-25.155a227.875 227.875 0 0 1-.466 3.123c-.16 1.034-.334 2.075-.525 3.117l-1.217-.201c.19-1.031.362-2.06.52-3.085l.001-.001c.161-1.031.315-2.067.463-3.106l1.224.153Zm-63.245 33.578a56.154 56.154 0 0 1-3.16-2.608l.834-.909a55.693 55.693 0 0 0 3.092 2.552c1.048.8 2.142 1.555 3.275 2.263l-.673 1.031a44.383 44.383 0 0 1-3.367-2.328l-.001-.001Zm60.899-21.145a67.424 67.424 0 0 1-1.867 6.084l-1.164-.395a66.348 66.348 0 0 0 1.833-5.974l1.198.285Zm-42.343 29.564a46.01 46.01 0 0 1-7.877-2.38l.48-1.128a44.852 44.852 0 0 0 7.665 2.316l-.268 1.192Zm37.948-17.608a40.237 40.237 0 0 1-3.349 5.49l-1-.702a39.045 39.045 0 0 0 3.246-5.322l1.103.534Zm-21.468 17.595c-2.689.62-5.464.905-8.26.891l.024-1.218c2.706.014 5.383-.262 7.97-.859l.266 1.186Zm11.325-5.186a30.534 30.534 0 0 0 2.501-2.077l-2.501 2.077Z" fill="#B8C0CA" fill-rule="evenodd"></path></g><path d="M86.016 103.936H263.19l16.842 126.328a5.001 5.001 0 0 1-4.957 5.661H107.989a5 5 0 0 1-4.956-4.34L86.016 103.936Z" fill="rgb(198,241,209)"></path><path d="M260.98 103.936H83.805L66.963 230.264a5 5 0 0 0 4.956 5.661h167.087a5 5 0 0 0 4.956-4.34l17.018-127.649Z" fill="#fff"></path><path d="M260.98 103.936H83.805l-2.741 17.048h177.715l2.201-17.048Z" fill="rgb(226,248,232)"></path><ellipse cx="4.402" cy="4.4" fill="rgb(198,241,209)" rx="4.402" ry="4.4" transform="matrix(-1 0 0 1 230.168 107.235)"></ellipse><path d="M226.189 112.734c-1.65-9.616 1.54-19.798 9.486-19.798 9.899 0 9.899 9.616 9.899 10.747" stroke="rgb(198,241,209)" stroke-width="4"></path><ellipse cx="4.402" cy="4.4" fill="rgb(198,241,209)" rx="4.402" ry="4.4" transform="matrix(-1 0 0 1 110.224 107.235)"></ellipse><path d="M106.245 112.734c-1.65-9.616 1.54-19.798 9.486-19.798 9.899 0 9.899 9.616 9.899 10.747" stroke="rgb(198,241,209)" stroke-width="4"></path><g opacity="0.5" stroke="#E3E5E8" stroke-linecap="round" stroke-width="2"><path d="m230.169 131.434-12.655 89.642M94.27 151.74l143.602.001M90.418 177.374H235.67M85.465 203.465l146.904-.004M190.004 131.434l-12.654 89.642M149.839 131.434l-12.655 89.642M109.674 131.434 97.02 221.076"></path></g><ellipse cx="92.263" cy="226.719" fill="rgb(44,179,79)" rx="45.667" ry="45.646"></ellipse><ellipse cx="92.263" cy="226.718" fill="#fff" rx="37.675" ry="37.658"></ellipse><rect fill="#B8C0CA" height="9.129" rx="1.712" width="3.425" x="91.122" y="193.625"></rect><rect fill="#B8C0CA" height="9.129" rx="1.712" width="3.425" x="91.122" y="251.822"></rect><rect fill="#B8C0CA" height="9.133" rx="1.712" transform="rotate(-90 116.238 227.86)" width="3.423" x="116.238" y="227.86"></rect><rect fill="#B8C0CA" height="9.133" rx="1.712" transform="rotate(-90 60.296 227.86)" width="3.423" x="60.296" y="227.86"></rect><ellipse cx="92.834" cy="226.149" fill="#E3E5E8" rx="5.138" ry="5.135"></ellipse><rect fill="#EC702C" height="36.526" rx="2.899" transform="rotate(48.437 -169.703 228.553) skewX(-.026)" width="5.799"></rect><path d="M89.98 174.226h6.85v7.988h-6.85zM122.758 187.076l4.047 3.872-3.23 3.372-4.047-3.872zM62.06 187.076l-4.047 3.872 3.23 3.372 4.047-3.872z" fill="rgb(32,133,59)"></path><rect fill="#3A3F46" height="10.27" rx="3" width="15.983" x="85.413" y="167.379"></rect><rect fill="#3A3F46" height="9.131" rx="3" transform="rotate(-45.622 249.258 33.251) skewX(.026)" width="11.502"></rect><rect fill="#3A3F46" height="9.131" rx="3" transform="matrix(-.6994 -.71474 -.71505 .69907 134.237 188.15)" width="11.502"></rect><defs><clipPath id="a"><path d="M23.41 46.507h305v257h-305z" fill="#fff"></path></clipPath></defs></svg>