<svg fill="none" height="100%" version="1.1" width="100%" xmlns="http://www.w3.org/2000/svg" viewBox="0 0 350 351"><path d="M261.147 272.356c-76.126 46.73-263.128-47.104-241.462-150.752 26.034-124.542 148.579-57.296 151.706-7.861 2.146 33.883 43.2-47.236 123.832-19.196 85.931 29.874 11.257 157.888-34.076 177.809Z" fill="rgb(249,250,250)"></path><path d="M160.771 94.124c0-7.641 6.231-13.836 13.917-13.836h68.767c7.686 0 13.917 6.195 13.917 13.836v153.819c0 7.641-6.231 13.835-13.917 13.835h-68.767c-7.686 0-13.917-6.194-13.917-13.835V94.123Z" fill="#6A7482"></path><path d="M169.008 98.43c0-4.495 3.666-8.139 8.187-8.139h63.754c4.521 0 8.186 3.644 8.186 8.139v148.779c0 4.495-3.665 8.138-8.186 8.138h-63.754c-4.521 0-8.187-3.643-8.187-8.138V98.429Z" fill="#fff"></path><path d="M192.222 90.649c0-2.96 2.414-5.36 5.391-5.36h22.917c2.977 0 5.39 2.4 5.39 5.36 0 2.96-2.413 5.359-5.39 5.359h-22.917c-2.977 0-5.391-2.4-5.391-5.36Z" fill="#6A7482"></path><path d="M160.771 115.3h8.237v106.465h-8.237V115.3Z" fill="#000" fill-opacity="0.28"></path><path d="M182.874 140.687h51.575v4.883h-51.575v-4.883ZM177.963 132.548h64.673v4.883h-64.673v-4.883ZM177.963 179.579c0-.899.734-1.628 1.638-1.628h21.285c.904 0 1.637.729 1.637 1.628v14.649c0 .899-.733 1.628-1.637 1.628h-21.285a1.634 1.634 0 0 1-1.638-1.628v-14.649ZM209.072 179.579c0-.899.733-1.628 1.637-1.628h21.285c.905 0 1.638.729 1.638 1.628v14.649c0 .899-.733 1.628-1.638 1.628h-21.285a1.633 1.633 0 0 1-1.637-1.628v-14.649ZM240.18 179.579c0-.899.734-1.628 1.638-1.628h5.73c.905 0 1.638.729 1.638 1.628v14.649c0 .899-.733 1.628-1.638 1.628h-5.73a1.634 1.634 0 0 1-1.638-1.628v-14.649ZM177.963 203.994c0-.899.734-1.627 1.638-1.627h21.285c.904 0 1.637.728 1.637 1.627v14.65c0 .899-.733 1.627-1.637 1.627h-21.285a1.633 1.633 0 0 1-1.638-1.627v-14.65ZM209.072 203.994c0-.899.733-1.627 1.637-1.627h21.285c.905 0 1.638.728 1.638 1.627v14.65c0 .899-.733 1.627-1.638 1.627h-21.285a1.632 1.632 0 0 1-1.637-1.627v-14.65ZM240.18 203.994c0-.899.734-1.627 1.638-1.627h5.73c.905 0 1.638.728 1.638 1.627v14.65c0 .899-.733 1.627-1.638 1.627h-5.73a1.633 1.633 0 0 1-1.638-1.627v-14.65Z" fill="#F0F1F2"></path><path d="M186.968 158.349a4 4 0 0 1 4-4h39.482a4 4 0 0 1 4 4v5.022a4 4 0 0 1-4 4h-39.482a4 4 0 0 1-4-4v-5.022ZM221.3 113.431c0 6.514-5.312 11.796-11.865 11.796-6.554 0-11.866-5.282-11.866-11.796 0-6.515 5.312-11.796 11.866-11.796 6.553 0 11.865 5.281 11.865 11.796Z" fill="#E3E5E8"></path><path clip-rule="evenodd" d="M171.647 149.142c3.15.868 5.438 3.704 3.344 10.662l-26.378 26.304c.218-.093.44-.175.668-.248 3.177-1.493 6.869.393 7.644 1.552l-.122.122a7.581 7.581 0 0 1 2.44 5.579 7.568 7.568 0 0 1-1.029 3.821c3.051-1.231 6.433 1.128 7.299 2.3a7.599 7.599 0 0 1 2.286 10c2.522-1.224 5.339.153 6.801 1.366a5.712 5.712 0 0 1 3.732 5.354c0 .246.002.483.004.71.013 1.846.022 3.047-.93 3.615-11.219 12.973-27.648 31.691-43.739 36.756.35.059.694.112 1.03.159-.611.032-1.216.057-1.816.077-.757.218-1.514.404-2.268.557-3.535.126-8.729-.284-13.971-2.205-7.324-2.24-13.104-7.008-16.935-16.08-4.248-10.061-1.132-18.073 1.616-25.138l.151-.39a63.616 63.616 0 0 1 1.111-2.942c.462-1.29.865-2.552 1.158-3.793.549-3.487.318-8.273.053-13.782-.331-6.861-.716-14.844.284-22.835.027-2.043.076-3.648.155-4.597.204-2.441 1.734-3.905 3.457-4.178 3.599-1.327 9.334-.645 11.468 6.957 2.673 9.517 3.341 15.386 3.341 17.131.161.374.463.8.911 1.097.055-.165.112-.325.169-.482 10.592-9.494 31.114-27.778 38.951-34.391l2.916-2.865c.437-.12.907-.226 1.399-.309 2.147-1.01 3.783-.588 4.8.116Z" fill="#000" fill-opacity="0.28" fill-rule="evenodd" opacity="0.5"></path><path d="M100.175 209.842c-1.961 4.466-6.006 16.796-4.876 22.734 4.2 22.079 23.646 25.168 32.553 24.851 17.256-3.506 35.312-24.268 47.242-38.068l-31.495-31.405 28.632-28.551c3.436-11.421-4.931-11.738-9.544-10.469-11.294 11.103-34.644 33.975-37.698 36.64-3.054 2.665-4.772 1.111-5.249 0 0-1.745-.668-7.613-3.34-17.13-2.673-9.517-10.987-8.189-13.691-5.651-4.772 18.745.823 39.407-2.534 47.049Z" fill="#FFC192"></path><ellipse cx="148.847" cy="192.711" fill="#FFC192" rx="7.635" ry="7.614"></ellipse><ellipse cx="158.391" cy="205.083" fill="#FFC192" rx="7.635" ry="7.614"></ellipse><path d="M175.572 215.552c0 3.154.279 4.708-2.884 4.708-3.162 0-8.569-1.554-8.569-4.708s2.564-5.71 5.726-5.71c3.163 0 5.727 2.556 5.727 5.71Z" fill="#FFC192"></path><path d="M126.996 192.347c-8.563 4.926-7.684-2.052-6.175-6.157 12.212-10.947 37.624-33.578 41.576-36.534 3.952-2.955 6.586-1.231 7.41 0-10.703 12.178-34.249 37.765-42.811 42.691ZM138.11 193.989l7.821-8.21c3.293-2.052 7.41 0 8.233 1.232l-11.526 11.493c-4.611 0-4.94-3.01-4.528-4.515ZM146.885 205.124l7.821-8.21c3.294-2.053 7.28.77 8.103 2.001l-11.396 10.724c-4.61 0-4.94-3.01-4.528-4.515ZM159.929 214.103l4.658-5.02c3.293-2.053 7.28.77 8.103 2.001l-8.103 7.535c-4.611 0-5.07-3.011-4.658-4.516ZM101.474 165.665c.33-3.941 4.116-5.336 6.586-3.284l.824 27.092c0 12.479-2.745 22.166-4.117 25.45-8.891 29.227 14.408 40.091 27.169 41.87-16.054.821-28.403-2.052-34.99-17.651-6.586-15.598 4.528-26.271 4.528-36.123 0-9.852-.411-32.428 0-37.354Z" fill="#FFB17C"></path><rect fill="#F7BE2C" height="22.352" rx="4.035" transform="matrix(1 -.00358 .00362 1 117.229 115.603)" width="8.069"></rect><rect fill="#F7BE2C" height="17.006" rx="3.582" transform="matrix(.777 -.62948 .63164 .77528 94.86 128.22)" width="7.165"></rect><rect fill="#F7BE2C" height="17.006" rx="3.582" transform="matrix(-.78152 -.6239 -.62603 .77979 147.896 128.029)" width="7.165"></rect></svg>